  0
SECTION
  2
HEADER
  9
$ACADVER
  1
AC1009
  9
$INSBASE
 10
0.0
 20
0.0
 30
0.0
  9
$EXTMIN
 10
-47.5000000000004
 20
-130.000000000001
 30
0.0
  9
$EXTMAX
 10
130.000000000001
 20
130.000000000001
 30
0.0
  9
$LIMMIN
 10
0.0
 20
0.0
  9
$LIMMAX
 10
12.0000
 20
 9.0000
9
$ORTHOMODE
70
0
9
$REGENMODE
70
1
9
$FILLMODE
70
1
9
$QTEXTMODE
70
0
9
$MIRRTEXT
70
1
9
$DRAGMODE
70
2
9
$LTSCALE
40
1.0
9
$OSMODE
70
0
9
$ATTMODE
70
1
9
$TEXTSIZE
40
0.2
9
$TRACEWID
40
0.05
9
$TEXTSTYLE
7
STANDARD
9
$CLAYER
8
0
9
$CELTYPE
6
BYLAYER
9
$CECOLOR
62
256
9
$DIMSCALE
40
1.0
9
$DIMASZ
40
0.18
9
$DIMEXO
40
0.0625
9
$DIMDLI
40
0.38
9
$DIMRND
40
0.0
9
$DIMDLE
40
0.0
9
$DIMEXE
40
0.18
9
$DIMTP
40
0.0
9
$DIMTM
40
0.0
9
$DIMTXT
40
0.18
9
$DIMCEN
40
0.09
9
$DIMTSZ
40
0.0
9
$DIMTOL
70
0
9
$DIMLIM
70
0
9
$DIMTIH
70
1
9
$DIMTOH
70
1
9
$DIMSE1
70
0
9
$DIMSE2
70
0
9
$DIMTAD
70
0
9
$DIMZIN
70
0
9
$DIMBLK
1

9
$DIMASO
70
1
9
$DIMSHO
70
1
9
$DIMPOST
1

9
$DIMAPOST
1

9
$DIMALT
70
0
9
$DIMALTD
70
2
9
$DIMALTF
40
25.4
9
$DIMLFAC
40
1.0
9
$DIMTOFL
70
0
9
$DIMTVP
40
0.0
9
$DIMTIX
70
0
9
$DIMSOXD
70
0
9
$DIMSAH
70
0
9
$DIMBLK1
1

9
$DIMBLK2
1

9
$DIMSTYLE
2
*UNNAMED
9
$DIMCLRD
70
0
9
$DIMCLRE
70
0
9
$DIMCLRT
70
0
9
$DIMTFAC
40
1.0
9
$DIMGAP
40
0.09
9
$LUNITS
70
2
9
$LUPREC
70
4
9
$SKETCHINC
40
0.1
9
$FILLETRAD
40
0.0
9
$AUNITS
70
0
9
$AUPREC
70
0
9
$MENU
1
acad
9
$ELEVATION
40
0.0
9
$PELEVATION
40
0.0
9
$THICKNESS
40
0.0
9
$LIMCHECK
70
0
9
$BLIPMODE
70
1
9
$CHAMFERA
40
0.0
9
$CHAMFERB
40
0.0
9
$SKPOLY
70
0
9
$TDCREATE
40
2449214.701881018
9
$TDUPDATE
40
2449214.701881018
9
$TDINDWG
40
0.0000000000
9
$TDUSRTIMER
40
0.0000000000
9
$USRTIMER
70
1
9
$ANGBASE
50
0.0
9
$ANGDIR
70
0
9
$PDMODE
70
0
9
$PDSIZE
40
0.0
9
$PLINEWID
40
0.0
9
$COORDS
70
1
9
$SPLFRAME
70
0
9
$SPLINETYPE
70
6
9
$SPLINESEGS
70
8
9
$ATTDIA
70
0
9
$ATTREQ
70
1
9
$HANDLING
70
0
9
$HANDSEED
5
0
9
$SURFTAB1
70
6
9
$SURFTAB2
70
6
9
$SURFTYPE
70
6
9
$SURFU
70
6
9
$SURFV
70
6
9
$UCSNAME
2

9
$UCSORG
10
0.0
20
0.0
30
0.0
9
$UCSXDIR
10
1.0
20
0.0
30
0.0
9
$UCSYDIR
10
0.0
20
1.0
30
0.0
9
$PUCSNAME
2

9
$PUCSORG
10
0.0
20
0.0
30
0.0
9
$PUCSXDIR
10
1.0
20
0.0
30
0.0
9
$PUCSYDIR
10
0.0
20
1.0
30
0.0
9
$USERI1
70
0
9
$USERI2
70
0
9
$USERI3
70
0
9
$USERI4
70
0
9
$USERI5
70
0
9
$USERR1
40
0.0
9
$USERR2
40
0.0
9
$USERR3
40
0.0
9
$USERR4
40
0.0
9
$USERR5
40
0.0
9
$WORLDVIEW
70
1
9
$SHADEDGE
70
3
9
$SHADEDIF
70
70
9
$TILEMODE
70
1
9
$MAXACTVP
70
16
9
$PINSBASE
10
0.0
20
0.0
30
0.0
9
$PLIMCHECK
70
0
  9
$PEXTMIN
 10
1.0000000000000000E+020
 20
1.0000000000000000E+020
 30
1.0000000000000000E+020
  9
$PEXTMAX
 10
-1.0000000000000000E+020
 20
-1.0000000000000000E+020
 30
-1.0000000000000000E+020
  9
$PLIMMIN
 10
-47.5000000000004
 20
-130.000000000001
  9
$PLIMMAX
 10
12.0000
 20
 9.0000
  9
$UNITMODE
 70
0
  9
$VISRETAIN
 70
1
  9
$PLINEGEN
 70
0
  9
$PSLTSCALE
 70
1
  0
ENDSEC
  0
SECTION
  2
TABLES
  0
TABLE
  2
VPORT
 70
3
  0
VPORT
  2
*ACTIVE
 70
0
 10
0.0
 20
0.0
 11
1.0
 21
1.0
 12
41.2500000000001
 22
-2.27373675443232e-13
 13
0.0
 23
0.0
 14
1.0
 24
1.0
 15
1.0
 25
1.0
 16
0.0
 26
0.0
 36
1.0
 17
0.0
 27
0.0
 37
0.0
 40
260.000000000002
 41
0.682692307692307
 42
50.0
 43
0.0
 44
0.0
 50
0.0
 51
0.0
 71
0
 72
100
 73
1
 74
3
 75
0
 76
0
 77
0
 78
0
  0
ENDTAB
0
TABLE
2
LTYPE
70
1
0
LTYPE
2
CONTINUOUS
70
64
3
Solid line
72
65
73
0
40
0.0
0
ENDTAB
  0
TABLE
  2
LAYER
 70
2
  0
LAYER
  2
Slice
 70
0
 62
7
  6
CONTINUOUS
  0
ENDTAB
0
TABLE
2
STYLE
70
1
0
STYLE
2
STANDARD
70
64
40
0.0
41
1.0
50
0.0
71
0
42
0.2
3
txt
4

0
ENDTAB
0
TABLE
2
VIEW
70
0
0
ENDTAB
0
TABLE
2
UCS
70
0
0
ENDTAB
0
TABLE
2
APPID
70
1
0
APPID
2
ACAD
70
64
0
ENDTAB
0
TABLE
2
DIMSTYLE
70
0
0
ENDTAB
0
ENDSEC
0
SECTION
2
BLOCKS
0
ENDSEC
  0
SECTION
  2
ENTITIES
  0
ARC
  5
0
  8
Slice
 10
-20.0999999999999
 20
20.3000000000001
 30
0
 40
0.300000000000027
 50
-71.5650511770902
 51
-53.1301023541558
  0
ARC
  5
0
  8
Slice
 10
128
 20
128
 30
0
 40
2
 50
0
 51
44.9999999999798
  0
ARC
  5
0
  8
Slice
 10
128
 20
128
 30
0
 40
2.00000000000056
 50
44.9999999999798
 51
90
  0
ARC
  5
0
  8
Slice
 10
-20.0999999999999
 20
20.3000000000001
 30
0
 40
0.300000000000001
 50
-90
 51
-71.5650511770902
  0
ARC
  5
0
  8
Slice
 10
102.75
 20
129.5
 30
0
 40
0.5
 50
90
 51
135.000000000002
  0
LINE
  5
0
  8
Slice
 10
-37.3543487266282
 20
21.4126092359771
 30
0
 11
-35.0712535371436
 21
20.0427521222863
 31
0
  0
ARC
  5
0
  8
Slice
 10
89.7499999999996
 20
-122.5
 30
0
 40
0.499999999999813
 50
44.9999999999758
 51
90
  0
ARC
  5
0
  8
Slice
 10
-23.2499999999997
 20
114.5
 30
0
 40
0.499999999999831
 50
-135.000000000024
 51
-90
  0
LINE
  5
0
  8
Slice
 10
90.2499999999996
 20
-129.5
 30
0
 11
90.2499999999996
 21
-122.5
 31
0
  0
ARC
  5
0
  8
Slice
 10
89.7499999999996
 20
-122.5
 30
0
 40
0.5
 50
0
 51
44.9999999999758
  0
LINE
  5
0
  8
Slice
 10
-4.24999999999976
 20
114
 30
0
 11
-23.2499999999997
 21
114
 31
0
  0
ARC
  5
0
  8
Slice
 10
89.7499999999996
 20
-129.5
 30
0
 40
0.500000000000516
 50
-45.0000000000564
 51
0
  0
ARC
  5
0
  8
Slice
 10
89.7499999999996
 20
-129.5
 30
0
 40
0.5
 50
-90
 51
-45.0000000000564
  0
LINE
  5
0
  8
Slice
 10
-23.7499999999997
 20
114.5
 30
0
 11
-23.7499999999997
 21
121.5
 31
0
  0
LINE
  5
0
  8
Slice
 10
114
 20
-64.5000000000005
 30
0
 11
114
 21
-45.5000000000005
 31
0
  0
ARC
  5
0
  8
Slice
 10
114.5
 20
-45.5000000000005
 30
0
 40
0.499999999999828
 50
134.999999999976
 51
180
  0
ARC
  5
0
  8
Slice
 10
-45.4999999999996
 20
128
 30
0
 40
2
 50
90
 51
135.000000000002
  0
LINE
  5
0
  8
Slice
 10
114.5
 20
-45.0000000000005
 30
0
 11
121.5
 21
-45.0000000000005
 31
0
  0
ARC
  5
0
  8
Slice
 10
121.5
 20
-45.5000000000005
 30
0
 40
0.499999999999828
 50
45.0000000000236
 51
90
  0
ARC
  5
0
  8
Slice
 10
-45.4999999999996
 20
128
 30
0
 40
1.99999999999993
 50
135.000000000002
 51
180
  0
ARC
  5
0
  8
Slice
 10
114.5
 20
-45.5000000000005
 30
0
 40
0.5
 50
90
 51
134.999999999976
  0
ARC
  5
0
  8
Slice
 10
-34.9169048105154
 20
20.3000000000001
 30
0
 40
0.300000000000003
 50
-120.96375653206
 51
-105.481878266049
  0
ARC
  5
0
  8
Slice
 10
102.75
 20
122.5
 30
0
 40
0.500000000000336
 50
-134.999999999921
 51
-90
  0
LINE
  5
0
  8
Slice
 10
-19.9199999999999
 20
20.0600000000001
 30
0
 11
-18.0799999999999
 21
21.4400000000001
 31
0
  0
ARC
  5
0
  8
Slice
 10
105.75
 20
121.5
 30
0
 40
0.500000000000326
 50
44.9999999999194
 51
90
  0
LINE
  5
0
  8
Slice
 10
102.75
 20
122
 30
0
 11
105.75
 21
122
 31
0
  0
ARC
  5
0
  8
Slice
 10
-17.8999999999999
 20
21.2000000000001
 30
0
 40
0.299999999999963
 50
108.434948822935
 51
126.869897645844
  0
ARC
  5
0
  8
Slice
 10
105.75
 20
121.5
 30
0
 40
0.5
 50
0
 51
44.9999999999194
  0
ARC
  5
0
  8
Slice
 10
-17.8999999999999
 20
21.2000000000001
 30
0
 40
0.299999999999997
 50
90
 51
108.434948822935
  0
LINE
  5
0
  8
Slice
 10
90.2500000000003
 20
122.5
 30
0
 11
90.2500000000003
 21
129.5
 31
0
  0
ARC
  5
0
  8
Slice
 10
18.624264068712
 20
20.2999999999999
 30
0
 40
0.299999999999982
 50
-134.999999999986
 51
-112.500000000019
  0
ARC
  5
0
  8
Slice
 10
41.2500000000003
 20
130
 30
0
 40
1.5
 50
180
 51
360
  0
LINE
  5
0
  8
Slice
 10
74.7500000000003
 20
130
 30
0
 11
42.7500000000003
 21
130
 31
0
  0
ARC
  5
0
  8
Slice
 10
18.624264068712
 20
20.2999999999999
 30
0
 40
0.29999999999995
 50
-112.500000000019
 51
-90
  0
ARC
  5
0
  8
Slice
 10
86.7500000000003
 20
121.5
 30
0
 40
0.5
 50
90
 51
135.000000000024
  0
ARC
  5
0
  8
Slice
 10
86.7500000000003
 20
121.5
 30
0
 40
0.499999999999833
 50
135.000000000024
 51
180
  0
ARC
  5
0
  8
Slice
 10
16.8757359312882
 20
21.1999999999999
 30
0
 40
0.299999999999979
 50
45.0000000000134
 51
67.5000000000063
  0
ARC
  5
0
  8
Slice
 10
89.7500000000003
 20
122.5
 30
0
 40
0.500000000000537
 50
-45.0000000000564
 51
0
  0
ARC
  5
0
  8
Slice
 10
89.7500000000003
 20
122.5
 30
0
 40
0.5
 50
-90
 51
-45.0000000000564
  0
ARC
  5
0
  8
Slice
 10
16.8757359312882
 20
21.1999999999999
 30
0
 40
0.300000000000002
 50
67.5000000000063
 51
90
  0
ARC
  5
0
  8
Slice
 10
86.7500000000003
 20
114.5
 30
0
 40
0.5
 50
180
 51
225.000000000056
  0
LINE
  5
0
  8
Slice
 10
86.2500000000003
 20
114.5
 30
0
 11
86.2500000000003
 21
121.5
 31
0
  0
LINE
  5
0
  8
Slice
 10
-17.8999999999999
 20
21.5000000000001
 30
0
 11
16.8757359312882
 21
21.4999999999999
 31
0
  0
ARC
  5
0
  8
Slice
 10
105.75
 20
114.5
 30
0
 40
0.5
 50
-90
 51
-45
  0
ARC
  5
0
  8
Slice
 10
105.75
 20
114.5
 30
0
 40
0.500000000001029
 50
-45
 51
0
  0
LINE
  5
0
  8
Slice
 10
17.0878679656441
 20
21.4121320343559
 30
0
 11
18.4121320343561
 21
20.0878679656439
 31
0
  0
LINE
  5
0
  8
Slice
 10
89.7500000000003
 20
130
 30
0
 11
74.7500000000003
 21
130
 31
0
  0
LINE
  5
0
  8
Slice
 10
39.7500000000003
 20
130
 30
0
 11
37.5000000000002
 21
130
 31
0
  0
ARC
  5
0
  8
Slice
 10
34.9169048105156
 20
20.2999999999999
 30
0
 40
0.300000000000001
 50
-90
 51
-74.5181217339675
  0
ARC
  5
0
  8
Slice
 10
89.7500000000003
 20
129.5
 30
0
 40
0.499999999999823
 50
44.9999999999747
 51
90
  0
ARC
  5
0
  8
Slice
 10
86.7500000000003
 20
114.5
 30
0
 40
0.500000000000537
 50
-134.999999999944
 51
-90
  0
LINE
  5
0
  8
Slice
 10
18.624264068712
 20
19.9999999999999
 30
0
 11
34.9169048105156
 21
19.9999999999999
 31
0
  0
ARC
  5
0
  8
Slice
 10
89.7500000000003
 20
129.5
 30
0
 40
0.5
 50
0
 51
44.9999999999747
  0
LINE
  5
0
  8
Slice
 10
86.7500000000003
 20
122
 30
0
 11
89.7500000000003
 21
122
 31
0
  0
ARC
  5
0
  8
Slice
 10
-34.9169048105154
 20
20.3000000000001
 30
0
 40
0.29999999999999
 50
-105.481878266049
 51
-90
  0
LINE
  5
0
  8
Slice
 10
121.5
 20
-65.0000000000005
 30
0
 11
114.5
 21
-65.0000000000005
 31
0
  0
ARC
  5
0
  8
Slice
 10
114.5
 20
-64.5000000000005
 30
0
 40
0.499999999999763
 50
-134.999999999984
 51
-90
  0
LINE
  5
0
  8
Slice
 10
-37.4999999999996
 20
130
 30
0
 11
-45.4999999999996
 21
130
 31
0
  0
LINE
  5
0
  8
Slice
 10
122
 20
-61.5000000000005
 30
0
 11
122
 21
-64.5000000000005
 31
0
  0
ARC
  5
0
  8
Slice
 10
121.5
 20
-64.5000000000005
 30
0
 40
0.499999999999833
 50
-45.0000000000242
 51
0
  0
ARC
  5
0
  8
Slice
 10
2.51445824988174e-13
 20
80.25
 30
0
 40
5.5
 50
0
 51
180
  0
ARC
  5
0
  8
Slice
 10
114.5
 20
-64.5000000000005
 30
0
 40
0.5
 50
180
 51
225.000000000016
  0
ARC
  5
0
  8
Slice
 10
121.5
 20
-64.5000000000005
 30
0
 40
0.5
 50
-90
 51
-45.0000000000242
  0
ARC
  5
0
  8
Slice
 10
2.51445824988174e-13
 20
80.25
 30
0
 40
5.5
 50
180
 51
360
  0
ARC
  5
0
  8
Slice
 10
122.5
 20
-61.5000000000005
 30
0
 40
0.499999999999818
 50
134.999999999975
 51
180
  0
ARC
  5
0
  8
Slice
 10
122.5
 20
-61.5000000000005
 30
0
 40
0.5
 50
90
 51
134.999999999975
  0
LINE
  5
0
  8
Slice
 10
-37.4999999999998
 20
67.5000000000001
 30
0
 11
-37.4999999999999
 21
26.0000000000001
 31
0
  0
ARC
  5
0
  8
Slice
 10
128
 20
-128
 30
0
 40
2
 50
-90
 51
-45.0000000000202
  0
LINE
  5
0
  8
Slice
 10
117.75
 20
-130
 30
0
 11
128
 21
-130
 31
0
  0
LINE
  5
0
  8
Slice
 10
130
 20
-76.5000000000005
 30
0
 11
130
 21
-61.5000000000005
 31
0
  0
ARC
  5
0
  8
Slice
 10
129.5
 20
-61.5000000000005
 30
0
 40
0.5
 50
0
 51
45.0000000000248
  0
LINE
  5
0
  8
Slice
 10
-35.2499999999997
 20
130
 30
0
 11
-37.4999999999996
 21
130
 31
0
  0
LINE
  5
0
  8
Slice
 10
129.5
 20
-61.0000000000005
 30
0
 11
122.5
 21
-61.0000000000005
 31
0
  0
LINE
  5
0
  8
Slice
 10
130
 20
-128
 30
0
 11
130
 21
-76.5000000000005
 31
0
  0
LINE
  5
0
  8
Slice
 10
-20.2499999999997
 20
130
 30
0
 11
-35.2499999999997
 21
130
 31
0
  0
ARC
  5
0
  8
Slice
 10
128
 20
-128
 30
0
 40
2.00000000000056
 50
-45.0000000000202
 51
0
  0
ARC
  5
0
  8
Slice
 10
129.5
 20
-61.5000000000005
 30
0
 40
0.499999999999818
 50
45.0000000000248
 51
90
  0
ARC
  5
0
  8
Slice
 10
-20.2499999999997
 20
129.5
 30
0
 40
0.499999999999818
 50
44.9999999999752
 51
90
  0
LINE
  5
0
  8
Slice
 10
102.25
 20
-122.5
 30
0
 11
102.25
 21
-129.5
 31
0
  0
ARC
  5
0
  8
Slice
 10
102.75
 20
-129.5
 30
0
 40
0.5
 50
180
 51
224.999999999998
  0
ARC
  5
0
  8
Slice
 10
-20.2499999999997
 20
129.5
 30
0
 40
0.5
 50
0
 51
44.9999999999752
  0
ARC
  5
0
  8
Slice
 10
105.75
 20
-121.5
 30
0
 40
0.5
 50
-90
 51
-45.0000000000806
  0
ARC
  5
0
  8
Slice
 10
105.75
 20
-121.5
 30
0
 40
0.500000000000326
 50
-45.0000000000806
 51
0
  0
ARC
  5
0
  8
Slice
 10
-20.2499999999997
 20
122.5
 30
0
 40
0.5
 50
-90
 51
-44.9999999999752
  0
ARC
  5
0
  8
Slice
 10
105.75
 20
-114.5
 30
0
 40
0.5
 50
0
 51
45
  0
LINE
  5
0
  8
Slice
 10
106.25
 20
-114.5
 30
0
 11
106.25
 21
-121.5
 31
0
  0
ARC
  5
0
  8
Slice
 10
34.9169048105156
 20
20.2999999999999
 30
0
 40
0.299999999999966
 50
-74.5181217339675
 51
-59.0362434679398
  0
ARC
  5
0
  8
Slice
 10
-23.2499999999997
 20
121.5
 30
0
 40
0.5
 50
90
 51
135.000000000024
  0
ARC
  5
0
  8
Slice
 10
102.75
 20
-122.5
 30
0
 40
0.5
 50
90
 51
135.000000000083
  0
ARC
  5
0
  8
Slice
 10
102.75
 20
-122.5
 30
0
 40
0.500000000000326
 50
135.000000000083
 51
180
  0
LINE
  5
0
  8
Slice
 10
-23.2499999999997
 20
122
 30
0
 11
-20.2499999999997
 21
122
 31
0
  0
ARC
  5
0
  8
Slice
 10
100.75
 20
98.9999999999997
 30
0
 40
5.49999999999969
 50
180
 51
360
  0
LINE
  5
0
  8
Slice
 10
105.75
 20
-122
 30
0
 11
102.75
 21
-122
 31
0
  0
ARC
  5
0
  8
Slice
 10
-23.2499999999997
 20
121.5
 30
0
 40
0.499999999999831
 50
135.000000000024
 51
180
  0
LINE
  5
0
  8
Slice
 10
86.2499999999996
 20
-121.5
 30
0
 11
86.2499999999996
 21
-114.5
 31
0
  0
ARC
  5
0
  8
Slice
 10
86.7499999999996
 20
-114.5
 30
0
 40
0.5
 50
90
 51
135.000000000016
  0
LINE
  5
0
  8
Slice
 10
-19.7499999999997
 20
122.5
 30
0
 11
-19.7499999999997
 21
129.5
 31
0
  0
ARC
  5
0
  8
Slice
 10
86.7499999999996
 20
-121.5
 30
0
 40
0.5
 50
180
 51
225.000000000058
  0
ARC
  5
0
  8
Slice
 10
86.7499999999996
 20
-114.5
 30
0
 40
0.499999999999763
 50
135.000000000016
 51
180
  0
ARC
  5
0
  8
Slice
 10
-20.2499999999997
 20
122.5
 30
0
 40
0.499999999999818
 50
-44.9999999999752
 51
0
  0
LINE
  5
0
  8
Slice
 10
86.7499999999996
 20
-114
 30
0
 11
105.75
 21
-114
 31
0
  0
ARC
  5
0
  8
Slice
 10
105.75
 20
-114.5
 30
0
 40
0.499999999999622
 50
45
 51
90
  0
ARC
  5
0
  8
Slice
 10
-23.2499999999997
 20
114.5
 30
0
 40
0.5
 50
180
 51
224.999999999976
  0
ARC
  5
0
  8
Slice
 10
-4.2500000000006
 20
-114.5
 30
0
 40
0.5
 50
0
 51
44.9999999999786
  0
ARC
  5
0
  8
Slice
 10
-4.2500000000006
 20
-114.5
 30
0
 40
0.499999999999809
 50
44.9999999999786
 51
90
  0
ARC
  5
0
  8
Slice
 10
-4.24999999999976
 20
114.5
 30
0
 40
0.5
 50
-90
 51
-44.9999999999786
  0
LINE
  5
0
  8
Slice
 10
-3.7500000000006
 20
-114.5
 30
0
 11
-3.75000000000063
 21
-121.5
 31
0
  0
ARC
  5
0
  8
Slice
 10
-4.25000000000063
 20
-121.5
 30
0
 40
0.5
 50
-90
 51
-44.9999999999787
  0
ARC
  5
0
  8
Slice
 10
-4.24999999999974
 20
121.5
 30
0
 40
0.5
 50
0
 51
44.9999999999787
  0
LINE
  5
0
  8
Slice
 10
-4.25000000000063
 20
-122
 30
0
 11
-7.25000000000063
 21
-122
 31
0
  0
ARC
  5
0
  8
Slice
 10
-4.25000000000063
 20
-121.5
 30
0
 40
0.499999999999808
 50
-44.9999999999787
 51
0
  0
ARC
  5
0
  8
Slice
 10
-4.24999999999976
 20
114.5
 30
0
 40
0.499999999999809
 50
-44.9999999999786
 51
0
  0
ARC
  5
0
  8
Slice
 10
-7.25000000000063
 20
-122.5
 30
0
 40
0.499999999999799
 50
135.000000000023
 51
180
  0
ARC
  5
0
  8
Slice
 10
-7.25000000000063
 20
-122.5
 30
0
 40
0.5
 50
90
 51
135.000000000023
  0
LINE
  5
0
  8
Slice
 10
-3.74999999999974
 20
121.5
 30
0
 11
-3.74999999999976
 21
114.5
 31
0
  0
LINE
  5
0
  8
Slice
 10
-23.2500000000004
 20
-114
 30
0
 11
-4.2500000000006
 21
-114
 31
0
  0
ARC
  5
0
  8
Slice
 10
-23.2500000000004
 20
-114.5
 30
0
 40
0.5
 50
90
 51
135.000000000016
  0
ARC
  5
0
  8
Slice
 10
-4.24999999999974
 20
121.5
 30
0
 40
0.499999999999808
 50
44.9999999999787
 51
90
  0
ARC
  5
0
  8
Slice
 10
-23.2500000000004
 20
-121.5
 30
0
 40
0.499999999999828
 50
-135.000000000024
 51
-90
  0
ARC
  5
0
  8
Slice
 10
-23.2500000000004
 20
-121.5
 30
0
 40
0.5
 50
180
 51
224.999999999976
  0
LINE
  5
0
  8
Slice
 10
-7.24999999999974
 20
122
 30
0
 11
-4.24999999999974
 21
122
 31
0
  0
LINE
  5
0
  8
Slice
 10
-23.7500000000004
 20
-121.5
 30
0
 11
-23.7500000000004
 21
-114.5
 31
0
  0
ARC
  5
0
  8
Slice
 10
-23.2500000000004
 20
-114.5
 30
0
 40
0.49999999999976
 50
135.000000000016
 51
180
  0
ARC
  5
0
  8
Slice
 10
-7.24999999999974
 20
122.5
 30
0
 40
0.499999999999806
 50
-135.000000000023
 51
-90
  0
LINE
  5
0
  8
Slice
 10
-20.2500000000004
 20
-122
 30
0
 11
-23.2500000000004
 21
-122
 31
0
  0
ARC
  5
0
  8
Slice
 10
-20.2500000000004
 20
-122.5
 30
0
 40
0.499999999999821
 50
44.999999999975
 51
90
  0
ARC
  5
0
  8
Slice
 10
-7.24999999999974
 20
122.5
 30
0
 40
0.500000000000012
 50
180
 51
224.999999999977
  0
ARC
  5
0
  8
Slice
 10
37.2000000000001
 20
21.6698571136906
 30
0
 40
0.29999999999997
 50
-59.0362434679122
 51
-29.5181217339703
  0
LINE
  5
0
  8
Slice
 10
35.0712535371438
 20
20.0427521222861
 30
0
 11
37.3543487266284
 21
21.4126092359769
 31
0
  0
ARC
  5
0
  8
Slice
 10
37.2000000000001
 20
21.6698571136906
 30
0
 40
0.299999999999975
 50
-29.5181217339703
 51
0
  0
LINE
  5
0
  8
Slice
 10
37.5000000000001
 20
21.6698571136906
 30
0
 11
37.5000000000001
 21
25.9999999999999
 31
0
  0
LINE
  5
0
  8
Slice
 10
37.5000000000001
 20
25.9999999999999
 30
0
 11
37.5000000000004
 21
67.4999999999999
 31
0
  0
ARC
  5
0
  8
Slice
 10
38.0000000000004
 20
67.4999999999999
 30
0
 40
0.500000000000014
 50
90
 51
135
  0
LINE
  5
0
  8
Slice
 10
38.0000000000004
 20
67.9999999999999
 30
0
 11
71.0000000000002
 21
67.9999999999998
 31
0
  0
LINE
  5
0
  8
Slice
 10
37.5000000000002
 20
130
 30
0
 11
7.75000000000029
 21
130
 31
0
  0
ARC
  5
0
  8
Slice
 10
38.0000000000004
 20
67.4999999999999
 30
0
 40
0.500000000000044
 50
135
 51
180
  0
ARC
  5
0
  8
Slice
 10
71.0000000000002
 20
67.4999999999998
 30
0
 40
0.499999999999974
 50
44.9999999999919
 51
90
  0
LINE
  5
0
  8
Slice
 10
71.5000000000003
 20
67.4999999999998
 30
0
 11
71.4999999999998
 21
-67.5000000000002
 31
0
  0
ARC
  5
0
  8
Slice
 10
71.0000000000002
 20
67.4999999999998
 30
0
 40
0.500000000000099
 50
0
 51
44.9999999999919
  0
ARC
  5
0
  8
Slice
 10
-7.24999999999972
 20
129.5
 30
0
 40
0.499999999999806
 50
135.000000000023
 51
180
  0
ARC
  5
0
  8
Slice
 10
-38.0000000000002
 20
-67.4999999999999
 30
0
 40
0.500000000000039
 50
-45.0000000000006
 51
0
  0
LINE
  5
0
  8
Slice
 10
-37.5000000000001
 20
-25.9999999999999
 30
0
 11
-37.5000000000002
 21
-67.4999999999999
 31
0
  0
LINE
  5
0
  8
Slice
 10
-7.74999999999972
 20
129.5
 30
0
 11
-7.74999999999975
 21
122.5
 31
0
  0
ARC
  5
0
  8
Slice
 10
-38.0000000000002
 20
-67.4999999999999
 30
0
 40
0.500000000000014
 50
-90
 51
-45.0000000000006
  0
ARC
  5
0
  8
Slice
 10
-7.24999999999972
 20
129.5
 30
0
 40
0.5
 50
89.9999999999988
 51
135.000000000023
  0
ARC
  5
0
  8
Slice
 10
38
 20
-67.5000000000001
 30
0
 40
0.500000000000034
 50
-134.999999999999
 51
-90
  0
LINE
  5
0
  8
Slice
 10
70.9999999999999
 20
-68.0000000000002
 30
0
 11
38
 21
-68.0000000000001
 31
0
  0
LINE
  5
0
  8
Slice
 10
7.75000000000029
 20
130
 30
0
 11
-7.24999999999971
 21
130
 31
0
  0
ARC
  5
0
  8
Slice
 10
70.9999999999999
 20
-67.5000000000002
 30
0
 40
0.500000000000044
 50
-45
 51
0
  0
ARC
  5
0
  8
Slice
 10
70.9999999999999
 20
-67.5000000000002
 30
0
 40
0.5
 50
-90
 51
-45
  0
LINE
  5
0
  8
Slice
 10
-47.4999999999996
 20
128
 30
0
 11
-47.4999999999998
 21
70.0000000000001
 31
0
  0
ARC
  5
0
  8
Slice
 10
122.5
 20
48.4999999999996
 30
0
 40
0.499999999999813
 50
134.999999999976
 51
180
  0
LINE
  5
0
  8
Slice
 10
122
 20
48.4999999999996
 30
0
 11
122
 21
45.4999999999995
 31
0
  0
ARC
  5
0
  8
Slice
 10
-45.4999999999998
 20
70.0000000000001
 30
0
 40
1.99999999999993
 50
-135.000000000002
 51
-90
  0
ARC
  5
0
  8
Slice
 10
114.5
 20
45.4999999999996
 30
0
 40
0.499999999999763
 50
-134.999999999984
 51
-90
  0
ARC
  5
0
  8
Slice
 10
121.5
 20
45.4999999999995
 30
0
 40
0.5
 50
-90
 51
-45.0000000000242
  0
LINE
  5
0
  8
Slice
 10
-45.4999999999998
 20
68.0000000000001
 30
0
 11
-37.9999999999998
 21
68.0000000000001
 31
0
  0
LINE
  5
0
  8
Slice
 10
121.5
 20
44.9999999999995
 30
0
 11
114.5
 21
44.9999999999996
 31
0
  0
ARC
  5
0
  8
Slice
 10
121.5
 20
45.4999999999995
 30
0
 40
0.499999999999833
 50
-45.0000000000242
 51
0
  0
ARC
  5
0
  8
Slice
 10
-45.4999999999998
 20
70.0000000000001
 30
0
 40
2
 50
180
 51
224.999999999998
  0
LINE
  5
0
  8
Slice
 10
114
 20
45.4999999999996
 30
0
 11
114
 21
64.4999999999996
 31
0
  0
ARC
  5
0
  8
Slice
 10
114.5
 20
45.4999999999996
 30
0
 40
0.5
 50
180
 51
225.000000000016
  0
ARC
  5
0
  8
Slice
 10
-37.9999999999998
 20
67.5000000000001
 30
0
 40
0.500000000000044
 50
45
 51
90
  0
LINE
  5
0
  8
Slice
 10
122.5
 20
60.9999999999996
 30
0
 11
129.5
 21
60.9999999999996
 31
0
  0
ARC
  5
0
  8
Slice
 10
129.5
 20
61.4999999999996
 30
0
 40
0.5
 50
-90
 51
-45.0000000000253
  0
ARC
  5
0
  8
Slice
 10
-37.9999999999998
 20
67.5000000000001
 30
0
 40
0.500000000000007
 50
0
 51
45
  0
ARC
  5
0
  8
Slice
 10
122.5
 20
61.4999999999996
 30
0
 40
0.499999999999823
 50
-134.999999999975
 51
-90
  0
ARC
  5
0
  8
Slice
 10
122.5
 20
61.4999999999996
 30
0
 40
0.5
 50
180
 51
225.000000000025
  0
LINE
  5
0
  8
Slice
 10
-37.4999999999999
 20
26.0000000000001
 30
0
 11
-37.4999999999999
 21
21.6698571136908
 31
0
  0
ARC
  5
0
  8
Slice
 10
121.5
 20
64.4999999999996
 30
0
 40
0.5
 50
0
 51
45.000000000023
  0
LINE
  5
0
  8
Slice
 10
122
 20
64.4999999999996
 30
0
 11
122
 21
61.4999999999996
 31
0
  0
ARC
  5
0
  8
Slice
 10
-37.1999999999999
 20
21.6698571136908
 30
0
 40
0.299999999999997
 50
180
 51
209.518121733962
  0
ARC
  5
0
  8
Slice
 10
114.5
 20
64.4999999999996
 30
0
 40
0.499999999999823
 50
134.999999999977
 51
180
  0
ARC
  5
0
  8
Slice
 10
114.5
 20
64.4999999999996
 30
0
 40
0.499999999999901
 50
90
 51
134.999999999977
  0
ARC
  5
0
  8
Slice
 10
-37.1999999999999
 20
21.6698571136908
 30
0
 40
0.300000000000056
 50
-150.481878266038
 51
-120.963756532087
  0
ARC
  5
0
  8
Slice
 10
129.5
 20
61.4999999999996
 30
0
 40
0.499999999999823
 50
-45.0000000000253
 51
0
  0
LINE
  5
0
  8
Slice
 10
-34.9169048105154
 20
20.0000000000001
 30
0
 11
-20.0999999999999
 21
20.0000000000001
 31
0
  0
LINE
  5
0
  8
Slice
 10
128
 20
130
 30
0
 11
117.75
 21
130
 31
0
  0
LINE
  5
0
  8
Slice
 10
-35.2500000000004
 20
-130
 30
0
 11
-20.2500000000004
 21
-130
 31
0
  0
LINE
  5
0
  8
Slice
 10
-45.5000000000004
 20
-130
 30
0
 11
-35.2500000000004
 21
-130
 31
0
  0
ARC
  5
0
  8
Slice
 10
-45.5000000000004
 20
-128
 30
0
 40
2
 50
180
 51
224.999999999998
  0
ARC
  5
0
  8
Slice
 10
-45.5000000000004
 20
-128
 30
0
 40
1.99999999999993
 50
-135.000000000002
 51
-90
  0
LINE
  5
0
  8
Slice
 10
130
 20
-48.5000000000005
 30
0
 11
130
 21
-33.5000000000005
 31
0
  0
ARC
  5
0
  8
Slice
 10
129.5
 20
-48.5000000000005
 30
0
 40
0.499999999999818
 50
-45.0000000000248
 51
0
  0
LINE
  5
0
  8
Slice
 10
122
 20
-45.5000000000005
 30
0
 11
122
 21
-48.5000000000005
 31
0
  0
ARC
  5
0
  8
Slice
 10
121.5
 20
-45.5000000000005
 30
0
 40
0.5
 50
0
 51
45.0000000000236
  0
ARC
  5
0
  8
Slice
 10
-2.51445824988174e-13
 20
-80.25
 30
0
 40
5.5
 50
180
 51
360
  0
ARC
  5
0
  8
Slice
 10
-2.51445824988174e-13
 20
-80.25
 30
0
 40
5.5
 50
0
 51
180
  0
LINE
  5
0
  8
Slice
 10
37.5
 20
-67.5000000000001
 30
0
 11
37.4999999999999
 21
-26.0000000000001
 31
0
  0
ARC
  5
0
  8
Slice
 10
38
 20
-67.5000000000001
 30
0
 40
0.5
 50
180
 51
225.000000000001
  0
LINE
  5
0
  8
Slice
 10
102.75
 20
-130
 30
0
 11
117.75
 21
-130
 31
0
  0
ARC
  5
0
  8
Slice
 10
102.75
 20
-129.5
 30
0
 40
0.500000000001029
 50
-135.000000000002
 51
-90
  0
LINE
  5
0
  8
Slice
 10
7.74999999999929
 20
-130
 30
0
 11
74.7499999999996
 21
-130
 31
0
  0
LINE
  5
0
  8
Slice
 10
74.7499999999996
 20
-130
 30
0
 11
89.7499999999996
 21
-130
 31
0
  0
LINE
  5
0
  8
Slice
 10
130
 20
76.4999999999995
 30
0
 11
130
 21
128
 31
0
  0
LINE
  5
0
  8
Slice
 10
130
 20
61.4999999999996
 30
0
 11
130
 21
76.4999999999995
 31
0
  0
ARC
  5
0
  8
Slice
 10
-45.5000000000002
 20
-69.9999999999999
 30
0
 40
2.00000000000001
 50
135
 51
180
  0
LINE
  5
0
  8
Slice
 10
-47.5000000000002
 20
-69.9999999999999
 30
0
 11
-47.5000000000004
 21
-128
 31
0
  0
ARC
  5
0
  8
Slice
 10
-45.5000000000002
 20
-69.9999999999999
 30
0
 40
1.99999999999999
 50
90
 51
135
  0
LINE
  5
0
  8
Slice
 10
-38.0000000000002
 20
-67.9999999999999
 30
0
 11
-45.5000000000002
 21
-67.9999999999999
 31
0
  0
ARC
  5
0
  8
Slice
 10
-20.2500000000004
 20
-129.5
 30
0
 40
0.5
 50
-90
 51
-44.999999999975
  0
ARC
  5
0
  8
Slice
 10
-20.2500000000004
 20
-129.5
 30
0
 40
0.499999999999821
 50
-44.999999999975
 51
0
  0
LINE
  5
0
  8
Slice
 10
117.75
 20
130
 30
0
 11
102.75
 21
130
 31
0
  0
ARC
  5
0
  8
Slice
 10
102.75
 20
129.5
 30
0
 40
0.499999999999622
 50
135.000000000002
 51
180
  0
LINE
  5
0
  8
Slice
 10
89.7499999999996
 20
-122
 30
0
 11
86.7499999999996
 21
-122
 31
0
  0
ARC
  5
0
  8
Slice
 10
86.7499999999996
 20
-121.5
 30
0
 40
0.500000000000527
 50
-134.999999999942
 51
-90
  0
ARC
  5
0
  8
Slice
 10
-7.25000000000067
 20
-129.5
 30
0
 40
0.5
 50
180
 51
224.999999999977
  0
LINE
  5
0
  8
Slice
 10
-7.75000000000063
 20
-122.5
 30
0
 11
-7.75000000000067
 21
-129.5
 31
0
  0
ARC
  5
0
  8
Slice
 10
-7.25000000000067
 20
-129.5
 30
0
 40
0.499999999999799
 50
-135.000000000023
 51
-90
  0
LINE
  5
0
  8
Slice
 10
-7.25000000000067
 20
-130
 30
0
 11
7.74999999999929
 21
-130
 31
0
  0
LINE
  5
0
  8
Slice
 10
-19.7500000000004
 20
-129.5
 30
0
 11
-19.7500000000004
 21
-122.5
 31
0
  0
ARC
  5
0
  8
Slice
 10
-20.2500000000004
 20
-122.5
 30
0
 40
0.5
 50
0
 51
44.999999999975
  0
LINE
  5
0
  8
Slice
 10
114.5
 20
64.9999999999995
 30
0
 11
121.5
 21
64.9999999999996
 31
0
  0
ARC
  5
0
  8
Slice
 10
121.5
 20
64.4999999999996
 30
0
 40
0.499999999999823
 50
45.000000000023
 51
90
  0
LINE
  5
0
  8
Slice
 10
105.75
 20
114
 30
0
 11
86.7500000000003
 21
114
 31
0
  0
LINE
  5
0
  8
Slice
 10
106.25
 20
121.5
 30
0
 11
106.25
 21
114.5
 31
0
  0
LINE
  5
0
  8
Slice
 10
129.5
 20
48.9999999999996
 30
0
 11
122.5
 21
48.9999999999996
 31
0
  0
ARC
  5
0
  8
Slice
 10
122.5
 20
48.4999999999996
 30
0
 40
0.5
 50
90
 51
134.999999999976
  0
ARC
  5
0
  8
Slice
 10
122.5
 20
-48.5000000000005
 30
0
 40
0.5
 50
180
 51
225.000000000025
  0
ARC
  5
0
  8
Slice
 10
122.5
 20
-48.5000000000005
 30
0
 40
0.499999999999818
 50
-134.999999999975
 51
-90
  0
ARC
  5
0
  8
Slice
 10
129.5
 20
-48.5000000000005
 30
0
 40
0.5
 50
-90
 51
-45.0000000000248
  0
LINE
  5
0
  8
Slice
 10
122.5
 20
-49.0000000000005
 30
0
 11
129.5
 21
-49.0000000000005
 31
0
  0
LINE
  5
0
  8
Slice
 10
130
 20
-33.5000000000005
 30
0
 11
130
 21
33.4999999999995
 31
0
  0
LINE
  5
0
  8
Slice
 10
130
 20
33.4999999999995
 30
0
 11
130
 21
48.4999999999996
 31
0
  0
LINE
  5
0
  8
Slice
 10
102.25
 20
129.5
 30
0
 11
102.25
 21
122.5
 31
0
  0
ARC
  5
0
  8
Slice
 10
102.75
 20
122.5
 30
0
 40
0.5
 50
180
 51
225.000000000079
  0
ARC
  5
0
  8
Slice
 10
129.5
 20
48.4999999999996
 30
0
 40
0.5
 50
0
 51
45.0000000000242
  0
ARC
  5
0
  8
Slice
 10
129.5
 20
48.4999999999996
 30
0
 40
0.499999999999813
 50
45.0000000000242
 51
90
  0
ARC
  5
0
  8
Slice
 10
100.75
 20
98.9999999999997
 30
0
 40
5.5
 50
0
 51
180
  0
ARC
  5
0
  8
Slice
 10
100.75
 20
-99.0000000000003
 30
0
 40
5.50000000000028
 50
180
 51
360
  0
ARC
  5
0
  8
Slice
 10
100.75
 20
-99.0000000000003
 30
0
 40
5.5
 50
0
 51
180
  0
ARC
  5
0
  8
Slice
 10
100.75
 20
-3.15678091807583e-13
 30
0
 40
5.5
 50
180
 51
360
  0
ARC
  5
0
  8
Slice
 10
100.75
 20
-3.15678091807583e-13
 30
0
 40
5.5
 50
-1.79523794990746e-13
 51
180
  0
LINE
  5
0
  8
Slice
 10
37.4999999999999
 20
-26.0000000000001
 30
0
 11
37.4999999999999
 21
-21.6698571136908
 31
0
  0
ARC
  5
0
  8
Slice
 10
37.1999999999999
 20
-21.6698571136908
 30
0
 40
0.299999999999997
 50
0
 51
29.5181217339616
  0
ARC
  5
0
  8
Slice
 10
37.1999999999999
 20
-21.6698571136908
 30
0
 40
0.300000000000056
 50
29.5181217339616
 51
59.0362434679133
  0
LINE
  5
0
  8
Slice
 10
37.3543487266282
 20
-21.4126092359771
 30
0
 11
35.0712535371436
 21
-20.0427521222863
 31
0
  0
ARC
  5
0
  8
Slice
 10
34.9169048105154
 20
-20.3000000000001
 30
0
 40
0.300000000000003
 50
59.0362434679398
 51
74.5181217339505
  0
ARC
  5
0
  8
Slice
 10
34.9169048105154
 20
-20.3000000000001
 30
0
 40
0.29999999999999
 50
74.5181217339505
 51
90
  0
LINE
  5
0
  8
Slice
 10
34.9169048105154
 20
-20.0000000000001
 30
0
 11
18.6242640687118
 21
-20.0000000000001
 31
0
  0
ARC
  5
0
  8
Slice
 10
18.6242640687118
 20
-20.3000000000001
 30
0
 40
0.300000000000001
 50
90
 51
112.499999999994
  0
ARC
  5
0
  8
Slice
 10
18.6242640687118
 20
-20.3000000000001
 30
0
 40
0.300000000000002
 50
112.499999999994
 51
134.999999999986
  0
LINE
  5
0
  8
Slice
 10
18.4121320343559
 20
-20.0878679656441
 30
0
 11
17.0878679656439
 21
-21.4121320343561
 31
0
  0
ARC
  5
0
  8
Slice
 10
16.875735931288
 20
-21.2000000000001
 30
0
 40
0.299999999999947
 50
-67.4999999999805
 51
-45.0000000000134
  0
ARC
  5
0
  8
Slice
 10
16.875735931288
 20
-21.2000000000001
 30
0
 40
0.299999999999997
 50
-90
 51
-67.4999999999805
  0
LINE
  5
0
  8
Slice
 10
16.875735931288
 20
-21.5000000000001
 30
0
 11
-17.9000000000001
 21
-21.4999999999999
 31
0
  0
ARC
  5
0
  8
Slice
 10
-17.9000000000001
 20
-21.2
 30
0
 40
0.299999999999933
 50
-108.434948822916
 51
-90
  0
ARC
  5
0
  8
Slice
 10
-17.9000000000001
 20
-21.2
 30
0
 40
0.299999999999922
 50
-126.869897645855
 51
-108.434948822916
  0
LINE
  5
0
  8
Slice
 10
-18.0800000000001
 20
-21.4399999999999
 30
0
 11
-19.9200000000001
 21
-20.0599999999999
 31
0
  0
ARC
  5
0
  8
Slice
 10
-20.1000000000001
 20
-20.2999999999999
 30
0
 40
0.300000000000001
 50
53.1301023541563
 51
71.5650511770653
  0
ARC
  5
0
  8
Slice
 10
-20.1000000000001
 20
-20.2999999999999
 30
0
 40
0.299999999999962
 50
71.5650511770653
 51
90
  0
LINE
  5
0
  8
Slice
 10
-20.1000000000001
 20
-19.9999999999999
 30
0
 11
-34.9169048105156
 21
-19.9999999999999
 31
0
  0
ARC
  5
0
  8
Slice
 10
-34.9169048105156
 20
-20.2999999999999
 30
0
 40
0.300000000000001
 50
90
 51
105.481878266033
  0
ARC
  5
0
  8
Slice
 10
-34.9169048105156
 20
-20.2999999999999
 30
0
 40
0.299999999999962
 50
105.481878266033
 51
120.96375653206
  0
LINE
  5
0
  8
Slice
 10
-35.0712535371438
 20
-20.0427521222861
 30
0
 11
-37.3543487266284
 21
-21.4126092359769
 31
0
  0
ARC
  5
0
  8
Slice
 10
-37.2000000000001
 20
-21.6698571136906
 30
0
 40
0.29999999999997
 50
120.963756532088
 51
150.48187826603
  0
ARC
  5
0
  8
Slice
 10
-37.2000000000001
 20
-21.6698571136906
 30
0
 40
0.299999999999975
 50
150.48187826603
 51
180
  0
LINE
  5
0
  8
Slice
 10
-37.5000000000001
 20
-21.6698571136906
 30
0
 11
-37.5000000000001
 21
-25.9999999999999
 31
0
  0
ENDSEC
  0
EOF
