  0
SECTION
  2
HEADER
  9
$ACADVER
  1
AC1009
  9
$INSBASE
 10
0.0
 20
0.0
 30
0.0
  9
$EXTMIN
 10
-47.5000000000005
 20
-128.999999999998
 30
0.0
  9
$EXTMAX
 10
129
 20
129.000000000003
 30
0.0
  9
$LIMMIN
 10
0.0
 20
0.0
  9
$LIMMAX
 10
12.0000
 20
 9.0000
9
$ORTHOMODE
70
0
9
$REGENMODE
70
1
9
$FILLMODE
70
1
9
$QTEXTMODE
70
0
9
$MIRRTEXT
70
1
9
$DRAGMODE
70
2
9
$LTSCALE
40
1.0
9
$OSMODE
70
0
9
$ATTMODE
70
1
9
$TEXTSIZE
40
0.2
9
$TRACEWID
40
0.05
9
$TEXTSTYLE
7
STANDARD
9
$CLAYER
8
0
9
$CELTYPE
6
BYLAYER
9
$CECOLOR
62
256
9
$DIMSCALE
40
1.0
9
$DIMASZ
40
0.18
9
$DIMEXO
40
0.0625
9
$DIMDLI
40
0.38
9
$DIMRND
40
0.0
9
$DIMDLE
40
0.0
9
$DIMEXE
40
0.18
9
$DIMTP
40
0.0
9
$DIMTM
40
0.0
9
$DIMTXT
40
0.18
9
$DIMCEN
40
0.09
9
$DIMTSZ
40
0.0
9
$DIMTOL
70
0
9
$DIMLIM
70
0
9
$DIMTIH
70
1
9
$DIMTOH
70
1
9
$DIMSE1
70
0
9
$DIMSE2
70
0
9
$DIMTAD
70
0
9
$DIMZIN
70
0
9
$DIMBLK
1

9
$DIMASO
70
1
9
$DIMSHO
70
1
9
$DIMPOST
1

9
$DIMAPOST
1

9
$DIMALT
70
0
9
$DIMALTD
70
2
9
$DIMALTF
40
25.4
9
$DIMLFAC
40
1.0
9
$DIMTOFL
70
0
9
$DIMTVP
40
0.0
9
$DIMTIX
70
0
9
$DIMSOXD
70
0
9
$DIMSAH
70
0
9
$DIMBLK1
1

9
$DIMBLK2
1

9
$DIMSTYLE
2
*UNNAMED
9
$DIMCLRD
70
0
9
$DIMCLRE
70
0
9
$DIMCLRT
70
0
9
$DIMTFAC
40
1.0
9
$DIMGAP
40
0.09
9
$LUNITS
70
2
9
$LUPREC
70
4
9
$SKETCHINC
40
0.1
9
$FILLETRAD
40
0.0
9
$AUNITS
70
0
9
$AUPREC
70
0
9
$MENU
1
acad
9
$ELEVATION
40
0.0
9
$PELEVATION
40
0.0
9
$THICKNESS
40
0.0
9
$LIMCHECK
70
0
9
$BLIPMODE
70
1
9
$CHAMFERA
40
0.0
9
$CHAMFERB
40
0.0
9
$SKPOLY
70
0
9
$TDCREATE
40
2449214.701881018
9
$TDUPDATE
40
2449214.701881018
9
$TDINDWG
40
0.0000000000
9
$TDUSRTIMER
40
0.0000000000
9
$USRTIMER
70
1
9
$ANGBASE
50
0.0
9
$ANGDIR
70
0
9
$PDMODE
70
0
9
$PDSIZE
40
0.0
9
$PLINEWID
40
0.0
9
$COORDS
70
1
9
$SPLFRAME
70
0
9
$SPLINETYPE
70
6
9
$SPLINESEGS
70
8
9
$ATTDIA
70
0
9
$ATTREQ
70
1
9
$HANDLING
70
0
9
$HANDSEED
5
0
9
$SURFTAB1
70
6
9
$SURFTAB2
70
6
9
$SURFTYPE
70
6
9
$SURFU
70
6
9
$SURFV
70
6
9
$UCSNAME
2

9
$UCSORG
10
0.0
20
0.0
30
0.0
9
$UCSXDIR
10
1.0
20
0.0
30
0.0
9
$UCSYDIR
10
0.0
20
1.0
30
0.0
9
$PUCSNAME
2

9
$PUCSORG
10
0.0
20
0.0
30
0.0
9
$PUCSXDIR
10
1.0
20
0.0
30
0.0
9
$PUCSYDIR
10
0.0
20
1.0
30
0.0
9
$USERI1
70
0
9
$USERI2
70
0
9
$USERI3
70
0
9
$USERI4
70
0
9
$USERI5
70
0
9
$USERR1
40
0.0
9
$USERR2
40
0.0
9
$USERR3
40
0.0
9
$USERR4
40
0.0
9
$USERR5
40
0.0
9
$WORLDVIEW
70
1
9
$SHADEDGE
70
3
9
$SHADEDIF
70
70
9
$TILEMODE
70
1
9
$MAXACTVP
70
16
9
$PINSBASE
10
0.0
20
0.0
30
0.0
9
$PLIMCHECK
70
0
  9
$PEXTMIN
 10
1.0000000000000000E+020
 20
1.0000000000000000E+020
 30
1.0000000000000000E+020
  9
$PEXTMAX
 10
-1.0000000000000000E+020
 20
-1.0000000000000000E+020
 30
-1.0000000000000000E+020
  9
$PLIMMIN
 10
-47.5000000000005
 20
-128.999999999998
  9
$PLIMMAX
 10
12.0000
 20
 9.0000
  9
$UNITMODE
 70
0
  9
$VISRETAIN
 70
1
  9
$PLINEGEN
 70
0
  9
$PSLTSCALE
 70
1
  0
ENDSEC
  0
SECTION
  2
TABLES
  0
TABLE
  2
VPORT
 70
3
  0
VPORT
  2
*ACTIVE
 70
0
 10
0.0
 20
0.0
 11
1.0
 21
1.0
 12
40.7499999999998
 22
2.51532128459075e-12
 13
0.0
 23
0.0
 14
1.0
 24
1.0
 15
1.0
 25
1.0
 16
0.0
 26
0.0
 36
1.0
 17
0.0
 27
0.0
 37
0.0
 40
258.000000000001
 41
0.684108527131782
 42
50.0
 43
0.0
 44
0.0
 50
0.0
 51
0.0
 71
0
 72
100
 73
1
 74
3
 75
0
 76
0
 77
0
 78
0
  0
ENDTAB
0
TABLE
2
LTYPE
70
1
0
LTYPE
2
CONTINUOUS
70
64
3
Solid line
72
65
73
0
40
0.0
0
ENDTAB
  0
TABLE
  2
LAYER
 70
2
  0
LAYER
  2
Slice
 70
0
 62
7
  6
CONTINUOUS
  0
ENDTAB
0
TABLE
2
STYLE
70
1
0
STYLE
2
STANDARD
70
64
40
0.0
41
1.0
50
0.0
71
0
42
0.2
3
txt
4

0
ENDTAB
0
TABLE
2
VIEW
70
0
0
ENDTAB
0
TABLE
2
UCS
70
0
0
ENDTAB
0
TABLE
2
APPID
70
1
0
APPID
2
ACAD
70
64
0
ENDTAB
0
TABLE
2
DIMSTYLE
70
0
0
ENDTAB
0
ENDSEC
0
SECTION
2
BLOCKS
0
ENDSEC
  0
SECTION
  2
ENTITIES
  0
LINE
  5
0
  8
Slice
 10
-45.4999999999999
 20
69.0000000000026
 30
0
 11
-32.0000000000001
 21
69.0000000000026
 31
0
  0
ARC
  5
0
  8
Slice
 10
-32.0000000000001
 20
68.5000000000026
 30
0
 40
0.500000000000037
 50
45.0000000000009
 51
90
  0
ARC
  5
0
  8
Slice
 10
-32.0000000000001
 20
68.5000000000026
 30
0
 40
0.500000000000004
 50
0
 51
45.0000000000009
  0
LINE
  5
0
  8
Slice
 10
-31.5000000000001
 20
68.5000000000026
 30
0
 11
-31.5
 21
32.0000000000027
 31
0
  0
ARC
  5
0
  8
Slice
 10
-25.5
 20
32.0000000000027
 30
0
 40
6
 50
180
 51
270
  0
LINE
  5
0
  8
Slice
 10
-25.5
 20
26.0000000000027
 30
0
 11
25.5
 21
26.0000000000025
 31
0
  0
ARC
  5
0
  8
Slice
 10
25.5
 20
32.0000000000025
 30
0
 40
6
 50
-90
 51
0
  0
LINE
  5
0
  8
Slice
 10
31.5
 20
32.0000000000025
 30
0
 11
31.5000000000002
 21
68.5000000000025
 31
0
  0
ARC
  5
0
  8
Slice
 10
32.0000000000002
 20
68.5000000000025
 30
0
 40
0.499999999999969
 50
134.999999999991
 51
180
  0
ARC
  5
0
  8
Slice
 10
32.0000000000002
 20
68.5000000000025
 30
0
 40
0.5
 50
90
 51
134.999999999991
  0
LINE
  5
0
  8
Slice
 10
32.0000000000002
 20
69.0000000000025
 30
0
 11
72.0000000000001
 21
69.0000000000024
 31
0
  0
ARC
  5
0
  8
Slice
 10
72.0000000000001
 20
68.5000000000024
 30
0
 40
0.499999999999974
 50
45.0000000000081
 51
90
  0
ARC
  5
0
  8
Slice
 10
72.0000000000001
 20
68.5000000000024
 30
0
 40
0.5
 50
0
 51
45.0000000000081
  0
LINE
  5
0
  8
Slice
 10
72.5000000000001
 20
68.5000000000024
 30
0
 11
72.4999999999998
 21
-68.4999999999976
 31
0
  0
ARC
  5
0
  8
Slice
 10
71.9999999999998
 20
-68.4999999999976
 30
0
 40
0.499999999999984
 50
-44.9999999999908
 51
0
  0
ARC
  5
0
  8
Slice
 10
71.9999999999998
 20
-68.4999999999976
 30
0
 40
0.5
 50
-90
 51
-44.9999999999908
  0
LINE
  5
0
  8
Slice
 10
71.9999999999998
 20
-68.9999999999976
 30
0
 11
31.9999999999998
 21
-68.9999999999972
 31
0
  0
ARC
  5
0
  8
Slice
 10
31.9999999999998
 20
-68.4999999999972
 30
0
 40
0.500000000000042
 50
-135
 51
-90
  0
ARC
  5
0
  8
Slice
 10
31.9999999999998
 20
-68.4999999999972
 30
0
 40
0.500000000000004
 50
180
 51
225
  0
LINE
  5
0
  8
Slice
 10
31.4999999999998
 20
-68.4999999999972
 30
0
 11
31.4999999999998
 21
-31.9999999999975
 31
0
  0
ARC
  5
0
  8
Slice
 10
25.4999999999998
 20
-31.9999999999975
 30
0
 40
6
 50
0
 51
90
  0
LINE
  5
0
  8
Slice
 10
25.4999999999998
 20
-25.9999999999975
 30
0
 11
-25.5000000000002
 21
-25.9999999999973
 31
0
  0
ARC
  5
0
  8
Slice
 10
-25.5000000000002
 20
-31.9999999999973
 30
0
 40
6
 50
90
 51
180
  0
LINE
  5
0
  8
Slice
 10
-31.5000000000002
 20
-31.9999999999973
 30
0
 11
-31.5000000000005
 21
-68.4999999999972
 31
0
  0
ARC
  5
0
  8
Slice
 10
-32.0000000000005
 20
-68.4999999999972
 30
0
 40
0.500000000000039
 50
-45.0000000000006
 51
0
  0
ARC
  5
0
  8
Slice
 10
-32.0000000000005
 20
-68.4999999999972
 30
0
 40
0.5
 50
-90
 51
-45.0000000000006
  0
LINE
  5
0
  8
Slice
 10
-32.0000000000005
 20
-68.9999999999972
 30
0
 11
-45.5000000000003
 21
-68.9999999999972
 31
0
  0
ARC
  5
0
  8
Slice
 10
-45.5000000000003
 20
-70.9999999999973
 30
0
 40
2.0000000000001
 50
90
 51
179.999999999997
  0
LINE
  5
0
  8
Slice
 10
-47.5000000000003
 20
-70.9999999999972
 30
0
 11
-47.5000000000005
 21
-126.999999999997
 31
0
  0
ARC
  5
0
  8
Slice
 10
-45.5000000000005
 20
-126.999999999997
 30
0
 40
2
 50
180
 51
270
  0
LINE
  5
0
  8
Slice
 10
-45.5000000000005
 20
-128.999999999997
 30
0
 11
-21.2500000000007
 21
-128.999999999997
 31
0
  0
ARC
  5
0
  8
Slice
 10
-21.2500000000007
 20
-128.499999999997
 30
0
 40
0.5
 50
-90
 51
-45.0000000000579
  0
ARC
  5
0
  8
Slice
 10
-21.2500000000007
 20
-128.499999999997
 30
0
 40
0.500000000000544
 50
-45.0000000000579
 51
0
  0
LINE
  5
0
  8
Slice
 10
-20.7500000000007
 20
-128.499999999997
 30
0
 11
-20.7500000000007
 21
-123.499999999997
 31
0
  0
ARC
  5
0
  8
Slice
 10
-21.2500000000007
 20
-123.499999999997
 30
0
 40
0.499999999999996
 50
0
 51
44.9999999999761
  0
ARC
  5
0
  8
Slice
 10
-21.2500000000007
 20
-123.499999999997
 30
0
 40
0.499999999999831
 50
44.9999999999761
 51
90
  0
LINE
  5
0
  8
Slice
 10
-21.2500000000007
 20
-122.999999999997
 30
0
 11
-24.2500000000007
 21
-122.999999999997
 31
0
  0
ARC
  5
0
  8
Slice
 10
-24.2500000000007
 20
-122.499999999997
 30
0
 40
0.500000000000534
 50
-134.999999999943
 51
-90
  0
ARC
  5
0
  8
Slice
 10
-24.2500000000007
 20
-122.499999999997
 30
0
 40
0.500000000000004
 50
180
 51
225.000000000057
  0
LINE
  5
0
  8
Slice
 10
-24.7500000000007
 20
-122.499999999997
 30
0
 11
-24.7500000000007
 21
-113.499999999997
 31
0
  0
ARC
  5
0
  8
Slice
 10
-24.2500000000007
 20
-113.499999999997
 30
0
 40
0.499999999999758
 50
135.000000000016
 51
180
  0
ARC
  5
0
  8
Slice
 10
-24.2500000000007
 20
-113.499999999997
 30
0
 40
0.5
 50
90
 51
135.000000000016
  0
LINE
  5
0
  8
Slice
 10
-24.2500000000007
 20
-112.999999999997
 30
0
 11
-3.25000000000058
 21
-112.999999999997
 31
0
  0
ARC
  5
0
  8
Slice
 10
-3.25000000000058
 20
-113.499999999997
 30
0
 40
0.499999999999816
 50
44.9999999999778
 51
90
  0
ARC
  5
0
  8
Slice
 10
-3.25000000000058
 20
-113.499999999997
 30
0
 40
0.5
 50
0
 51
44.9999999999778
  0
LINE
  5
0
  8
Slice
 10
-2.75000000000058
 20
-113.499999999997
 30
0
 11
-2.7500000000006
 21
-122.499999999997
 31
0
  0
ARC
  5
0
  8
Slice
 10
-3.25000000000061
 20
-122.499999999997
 30
0
 40
0.500000000000519
 50
-45.0000000000584
 51
0
  0
ARC
  5
0
  8
Slice
 10
-3.25000000000061
 20
-122.499999999997
 30
0
 40
0.5
 50
-90
 51
-45.0000000000584
  0
LINE
  5
0
  8
Slice
 10
-3.25000000000061
 20
-122.999999999997
 30
0
 11
-6.25000000000061
 21
-122.999999999997
 31
0
  0
ARC
  5
0
  8
Slice
 10
-6.25000000000061
 20
-123.499999999997
 30
0
 40
0.5
 50
90
 51
135.000000000021
  0
ARC
  5
0
  8
Slice
 10
-6.25000000000061
 20
-123.499999999997
 30
0
 40
0.499999999999808
 50
135.000000000021
 51
180
  0
LINE
  5
0
  8
Slice
 10
-6.75000000000061
 20
-123.499999999997
 30
0
 11
-6.75000000000063
 21
-128.499999999997
 31
0
  0
ARC
  5
0
  8
Slice
 10
-6.25000000000063
 20
-128.499999999997
 30
0
 40
0.5
 50
180
 51
225.00000000006
  0
ARC
  5
0
  8
Slice
 10
-6.25000000000063
 20
-128.499999999997
 30
0
 40
0.500000000000522
 50
-134.99999999994
 51
-89.999999999999
  0
LINE
  5
0
  8
Slice
 10
-6.25000000000062
 20
-128.999999999997
 30
0
 11
88.7499999999993
 21
-128.999999999998
 31
0
  0
ARC
  5
0
  8
Slice
 10
88.7499999999993
 20
-128.499999999998
 30
0
 40
0.5
 50
-90
 51
-44.9999999999747
  0
ARC
  5
0
  8
Slice
 10
88.7499999999993
 20
-128.499999999998
 30
0
 40
0.499999999999823
 50
-44.9999999999747
 51
0
  0
LINE
  5
0
  8
Slice
 10
89.2499999999993
 20
-128.499999999998
 30
0
 11
89.2499999999993
 21
-123.499999999998
 31
0
  0
ARC
  5
0
  8
Slice
 10
88.7499999999993
 20
-123.499999999998
 30
0
 40
0.5
 50
0
 51
45.0000000000564
  0
ARC
  5
0
  8
Slice
 10
88.7499999999993
 20
-123.499999999998
 30
0
 40
0.500000000000537
 50
45.0000000000564
 51
90
  0
LINE
  5
0
  8
Slice
 10
88.7499999999993
 20
-122.999999999998
 30
0
 11
85.7499999999994
 21
-122.999999999998
 31
0
  0
ARC
  5
0
  8
Slice
 10
85.7499999999994
 20
-122.499999999998
 30
0
 40
0.499999999999833
 50
-135.000000000024
 51
-90
  0
ARC
  5
0
  8
Slice
 10
85.7499999999994
 20
-122.499999999998
 30
0
 40
0.500000000000099
 50
180
 51
224.999999999976
  0
LINE
  5
0
  8
Slice
 10
85.2499999999993
 20
-122.499999999998
 30
0
 11
85.2499999999994
 21
-113.499999999998
 31
0
  0
ARC
  5
0
  8
Slice
 10
85.7499999999994
 20
-113.499999999998
 30
0
 40
0.500000000000547
 50
134.999999999942
 51
180
  0
ARC
  5
0
  8
Slice
 10
85.7499999999994
 20
-113.499999999998
 30
0
 40
0.5
 50
90
 51
134.999999999942
  0
LINE
  5
0
  8
Slice
 10
85.7499999999994
 20
-112.999999999998
 30
0
 11
106.75
 21
-112.999999999998
 31
0
  0
ARC
  5
0
  8
Slice
 10
106.75
 20
-113.499999999998
 30
0
 40
0.499999999999622
 50
45
 51
90
  0
ARC
  5
0
  8
Slice
 10
106.75
 20
-113.499999999998
 30
0
 40
0.5
 50
0
 51
45
  0
LINE
  5
0
  8
Slice
 10
107.25
 20
-113.499999999998
 30
0
 11
107.25
 21
-122.499999999998
 31
0
  0
ARC
  5
0
  8
Slice
 10
106.75
 20
-122.499999999998
 30
0
 40
0.499999999999622
 50
-45
 51
0
  0
ARC
  5
0
  8
Slice
 10
106.75
 20
-122.499999999998
 30
0
 40
0.5
 50
-90
 51
-45
  0
LINE
  5
0
  8
Slice
 10
106.75
 20
-122.999999999998
 30
0
 11
103.75
 21
-122.999999999998
 31
0
  0
ARC
  5
0
  8
Slice
 10
103.75
 20
-123.499999999998
 30
0
 40
0.5
 50
90
 51
135.000000000001
  0
ARC
  5
0
  8
Slice
 10
103.75
 20
-123.499999999998
 30
0
 40
0.500000000001039
 50
135.000000000001
 51
180
  0
LINE
  5
0
  8
Slice
 10
103.25
 20
-123.499999999998
 30
0
 11
103.249999999999
 21
-128.499999999998
 31
0
  0
ARC
  5
0
  8
Slice
 10
103.749999999999
 20
-128.499999999998
 30
0
 40
0.5
 50
180
 51
224.999999999999
  0
ARC
  5
0
  8
Slice
 10
103.749999999999
 20
-128.499999999998
 30
0
 40
0.499999999999612
 50
-135.000000000001
 51
-90
  0
LINE
  5
0
  8
Slice
 10
103.749999999999
 20
-128.999999999998
 30
0
 11
127
 21
-128.999999999998
 31
0
  0
ARC
  5
0
  8
Slice
 10
127
 20
-126.999999999998
 30
0
 40
2
 50
-90
 51
-44.9999999999994
  0
ARC
  5
0
  8
Slice
 10
127
 20
-126.999999999998
 30
0
 40
1.99999999999988
 50
-44.9999999999994
 51
0
  0
LINE
  5
0
  8
Slice
 10
129
 20
-126.999999999998
 30
0
 11
129
 21
-62.4999999999978
 31
0
  0
ARC
  5
0
  8
Slice
 10
128.5
 20
-62.4999999999978
 30
0
 40
0.5
 50
0
 51
45.0000000000167
  0
ARC
  5
0
  8
Slice
 10
128.5
 20
-62.4999999999978
 30
0
 40
0.499999999999748
 50
45.0000000000167
 51
90
  0
LINE
  5
0
  8
Slice
 10
128.5
 20
-61.9999999999978
 30
0
 11
123.5
 21
-61.9999999999978
 31
0
  0
ARC
  5
0
  8
Slice
 10
123.5
 20
-62.4999999999978
 30
0
 40
0.5
 50
90
 51
135.000000000057
  0
ARC
  5
0
  8
Slice
 10
123.5
 20
-62.4999999999978
 30
0
 40
0.500000000000532
 50
135.000000000057
 51
180
  0
LINE
  5
0
  8
Slice
 10
123
 20
-62.4999999999978
 30
0
 11
123
 21
-65.9999999999979
 31
0
  0
LINE
  5
0
  8
Slice
 10
123
 20
-65.9999999999979
 30
0
 11
113.5
 21
-65.9999999999978
 31
0
  0
ARC
  5
0
  8
Slice
 10
113.5
 20
-65.4999999999978
 30
0
 40
0.500000000000466
 50
-135.000000000064
 51
-90
  0
ARC
  5
0
  8
Slice
 10
113.5
 20
-65.4999999999978
 30
0
 40
0.5
 50
180
 51
224.999999999936
  0
LINE
  5
0
  8
Slice
 10
113
 20
-65.4999999999978
 30
0
 11
113
 21
-44.4999999999978
 31
0
  0
ARC
  5
0
  8
Slice
 10
113.5
 20
-44.4999999999978
 30
0
 40
0.499999999999828
 50
134.999999999976
 51
180
  0
ARC
  5
0
  8
Slice
 10
113.5
 20
-44.4999999999978
 30
0
 40
0.5
 50
90
 51
134.999999999976
  0
LINE
  5
0
  8
Slice
 10
113.5
 20
-43.9999999999978
 30
0
 11
122.5
 21
-43.9999999999978
 31
0
  0
ARC
  5
0
  8
Slice
 10
122.5
 20
-44.4999999999978
 30
0
 40
0.499999999999758
 50
45.0000000000155
 51
90
  0
ARC
  5
0
  8
Slice
 10
122.5
 20
-44.4999999999978
 30
0
 40
0.5
 50
0
 51
45.0000000000155
  0
LINE
  5
0
  8
Slice
 10
123
 20
-44.4999999999978
 30
0
 11
123
 21
-47.4999999999978
 31
0
  0
ARC
  5
0
  8
Slice
 10
123.5
 20
-47.4999999999978
 30
0
 40
0.5
 50
180
 51
224.999999999943
  0
ARC
  5
0
  8
Slice
 10
123.5
 20
-47.4999999999978
 30
0
 40
0.500000000000532
 50
-135.000000000057
 51
-90
  0
LINE
  5
0
  8
Slice
 10
123.5
 20
-47.9999999999978
 30
0
 11
128.5
 21
-47.9999999999978
 31
0
  0
ARC
  5
0
  8
Slice
 10
128.5
 20
-47.4999999999978
 30
0
 40
0.5
 50
-90
 51
-45.0000000000248
  0
ARC
  5
0
  8
Slice
 10
128.5
 20
-47.4999999999978
 30
0
 40
0.499999999999818
 50
-45.0000000000248
 51
0
  0
LINE
  5
0
  8
Slice
 10
129
 20
-47.4999999999978
 30
0
 11
129
 21
47.5000000000022
 31
0
  0
ARC
  5
0
  8
Slice
 10
128.5
 20
47.5000000000022
 30
0
 40
0.5
 50
0
 51
45.0000000000161
  0
ARC
  5
0
  8
Slice
 10
128.5
 20
47.5000000000022
 30
0
 40
0.499999999999743
 50
45.0000000000161
 51
90
  0
LINE
  5
0
  8
Slice
 10
128.5
 20
48.0000000000022
 30
0
 11
123.5
 21
48.0000000000022
 31
0
  0
ARC
  5
0
  8
Slice
 10
123.5
 20
47.5000000000022
 30
0
 40
0.499999999999993
 50
90
 51
134.999999999977
  0
ARC
  5
0
  8
Slice
 10
123.5
 20
47.5000000000022
 30
0
 40
0.499999999999823
 50
134.999999999977
 51
180
  0
LINE
  5
0
  8
Slice
 10
123
 20
47.5000000000022
 30
0
 11
123
 21
44.5000000000022
 31
0
  0
ARC
  5
0
  8
Slice
 10
122.5
 20
44.5000000000022
 30
0
 40
0.499999999999833
 50
-45.0000000000242
 51
0
  0
ARC
  5
0
  8
Slice
 10
122.5
 20
44.5000000000022
 30
0
 40
0.5
 50
-90
 51
-45.0000000000242
  0
LINE
  5
0
  8
Slice
 10
122.5
 20
44.0000000000022
 30
0
 11
113.5
 21
44.0000000000022
 31
0
  0
ARC
  5
0
  8
Slice
 10
113.5
 20
44.5000000000022
 30
0
 40
0.499999999999758
 50
-134.999999999984
 51
-90
  0
ARC
  5
0
  8
Slice
 10
113.5
 20
44.5000000000022
 30
0
 40
0.5
 50
180
 51
225.000000000016
  0
LINE
  5
0
  8
Slice
 10
113
 20
44.5000000000022
 30
0
 11
113
 21
65.5000000000022
 31
0
  0
ARC
  5
0
  8
Slice
 10
113.5
 20
65.5000000000022
 30
0
 40
0.499999999999823
 50
134.999999999977
 51
180
  0
ARC
  5
0
  8
Slice
 10
113.5
 20
65.5000000000022
 30
0
 40
0.5
 50
90
 51
134.999999999977
  0
LINE
  5
0
  8
Slice
 10
113.5
 20
66.0000000000022
 30
0
 11
122.5
 21
66.0000000000023
 31
0
  0
ARC
  5
0
  8
Slice
 10
122.5
 20
65.5000000000023
 30
0
 40
0.499999999999753
 50
45.000000000015
 51
90
  0
ARC
  5
0
  8
Slice
 10
122.5
 20
65.5000000000023
 30
0
 40
0.5
 50
0
 51
45.000000000015
  0
LINE
  5
0
  8
Slice
 10
123
 20
65.5000000000023
 30
0
 11
123
 21
62.5000000000022
 31
0
  0
ARC
  5
0
  8
Slice
 10
123.5
 20
62.5000000000022
 30
0
 40
0.5
 50
180
 51
225.000000000024
  0
ARC
  5
0
  8
Slice
 10
123.5
 20
62.5000000000022
 30
0
 40
0.499999999999833
 50
-134.999999999976
 51
-90
  0
LINE
  5
0
  8
Slice
 10
123.5
 20
62.0000000000022
 30
0
 11
128.5
 21
62.0000000000022
 31
0
  0
ARC
  5
0
  8
Slice
 10
128.5
 20
62.5000000000022
 30
0
 40
0.5
 50
-90
 51
-45.0000000000253
  0
ARC
  5
0
  8
Slice
 10
128.5
 20
62.5000000000022
 30
0
 40
0.499999999999823
 50
-45.0000000000253
 51
0
  0
LINE
  5
0
  8
Slice
 10
129
 20
62.5000000000022
 30
0
 11
129
 21
127.000000000002
 31
0
  0
ARC
  5
0
  8
Slice
 10
127
 20
127.000000000002
 30
0
 40
2
 50
0
 51
44.9999999999997
  0
ARC
  5
0
  8
Slice
 10
127
 20
127.000000000002
 30
0
 40
1.99999999999989
 50
44.9999999999997
 51
90
  0
LINE
  5
0
  8
Slice
 10
127
 20
129.000000000002
 30
0
 11
103.75
 21
129.000000000002
 31
0
  0
ARC
  5
0
  8
Slice
 10
103.75
 20
128.500000000002
 30
0
 40
0.5
 50
90
 51
134.999999999919
  0
ARC
  5
0
  8
Slice
 10
103.75
 20
128.500000000002
 30
0
 40
0.500000000000346
 50
134.999999999919
 51
180
  0
LINE
  5
0
  8
Slice
 10
103.25
 20
128.500000000002
 30
0
 11
103.25
 21
123.500000000002
 31
0
  0
ARC
  5
0
  8
Slice
 10
103.75
 20
123.500000000002
 30
0
 40
0.5
 50
180
 51
225
  0
ARC
  5
0
  8
Slice
 10
103.75
 20
123.500000000002
 30
0
 40
0.499999999999642
 50
-135
 51
-90
  0
LINE
  5
0
  8
Slice
 10
103.75
 20
123.000000000002
 30
0
 11
106.75
 21
123.000000000002
 31
0
  0
ARC
  5
0
  8
Slice
 10
106.75
 20
122.500000000002
 30
0
 40
0.500000000000326
 50
44.9999999999194
 51
90
  0
ARC
  5
0
  8
Slice
 10
106.75
 20
122.500000000002
 30
0
 40
0.5
 50
0
 51
44.9999999999194
  0
LINE
  5
0
  8
Slice
 10
107.25
 20
122.500000000002
 30
0
 11
107.25
 21
113.500000000002
 31
0
  0
ARC
  5
0
  8
Slice
 10
106.75
 20
113.500000000002
 30
0
 40
0.500000000000326
 50
-44.9999999999194
 51
0
  0
ARC
  5
0
  8
Slice
 10
106.75
 20
113.500000000002
 30
0
 40
0.5
 50
-90
 51
-44.9999999999194
  0
LINE
  5
0
  8
Slice
 10
106.75
 20
113.000000000002
 30
0
 11
85.7500000000002
 21
113.000000000002
 31
0
  0
ARC
  5
0
  8
Slice
 10
85.7500000000002
 20
113.500000000002
 30
0
 40
0.499999999999833
 50
-135.000000000024
 51
-90
  0
ARC
  5
0
  8
Slice
 10
85.7500000000002
 20
113.500000000002
 30
0
 40
0.5
 50
180
 51
224.999999999976
  0
LINE
  5
0
  8
Slice
 10
85.2500000000002
 20
113.500000000002
 30
0
 11
85.2500000000002
 21
122.500000000002
 31
0
  0
ARC
  5
0
  8
Slice
 10
85.7500000000002
 20
122.500000000002
 30
0
 40
0.500000000000466
 50
134.999999999936
 51
180
  0
ARC
  5
0
  8
Slice
 10
85.7500000000002
 20
122.500000000002
 30
0
 40
0.5
 50
90
 51
134.999999999936
  0
LINE
  5
0
  8
Slice
 10
85.7500000000002
 20
123.000000000002
 30
0
 11
88.7500000000002
 21
123.000000000002
 31
0
  0
ARC
  5
0
  8
Slice
 10
88.7500000000002
 20
123.500000000002
 30
0
 40
0.500000000000014
 50
-90
 51
-44.999999999977
  0
ARC
  5
0
  8
Slice
 10
88.7500000000002
 20
123.500000000002
 30
0
 40
0.499999999999843
 50
-44.999999999977
 51
0
  0
LINE
  5
0
  8
Slice
 10
89.2500000000002
 20
123.500000000002
 30
0
 11
89.2500000000002
 21
128.500000000002
 31
0
  0
ARC
  5
0
  8
Slice
 10
88.7500000000002
 20
128.500000000002
 30
0
 40
0.5
 50
0
 51
45.0000000000576
  0
ARC
  5
0
  8
Slice
 10
88.7500000000002
 20
128.500000000002
 30
0
 40
0.500000000000547
 50
45.0000000000576
 51
90
  0
LINE
  5
0
  8
Slice
 10
88.7500000000002
 20
129.000000000002
 30
0
 11
-6.2499999999998
 21
129.000000000003
 31
0
  0
ARC
  5
0
  8
Slice
 10
-6.2499999999998
 20
128.500000000003
 30
0
 40
0.5
 50
90
 51
135.000000000026
  0
ARC
  5
0
  8
Slice
 10
-6.2499999999998
 20
128.500000000003
 30
0
 40
0.499999999999785
 50
135.000000000026
 51
180
  0
LINE
  5
0
  8
Slice
 10
-6.7499999999998
 20
128.500000000003
 30
0
 11
-6.74999999999982
 21
123.500000000003
 31
0
  0
ARC
  5
0
  8
Slice
 10
-6.24999999999982
 20
123.500000000003
 30
0
 40
0.5
 50
180
 51
225.000000000059
  0
ARC
  5
0
  8
Slice
 10
-6.24999999999982
 20
123.500000000003
 30
0
 40
0.500000000000512
 50
-134.999999999941
 51
-90
  0
LINE
  5
0
  8
Slice
 10
-6.24999999999982
 20
123.000000000003
 30
0
 11
-3.24999999999982
 21
123.000000000003
 31
0
  0
ARC
  5
0
  8
Slice
 10
-3.24999999999982
 20
122.500000000003
 30
0
 40
0.499999999999808
 50
44.9999999999787
 51
90
  0
ARC
  5
0
  8
Slice
 10
-3.24999999999982
 20
122.500000000003
 30
0
 40
0.5
 50
0
 51
44.9999999999787
  0
LINE
  5
0
  8
Slice
 10
-2.74999999999982
 20
122.500000000003
 30
0
 11
-2.74999999999985
 21
113.500000000003
 31
0
  0
ARC
  5
0
  8
Slice
 10
-3.24999999999985
 20
113.500000000003
 30
0
 40
0.500000000000512
 50
-45.0000000000593
 51
0
  0
ARC
  5
0
  8
Slice
 10
-3.24999999999985
 20
113.500000000003
 30
0
 40
0.5
 50
-90.0000000000012
 51
-45.0000000000593
  0
LINE
  5
0
  8
Slice
 10
-3.24999999999986
 20
113.000000000003
 30
0
 11
-24.2499999999998
 21
113.000000000003
 31
0
  0
ARC
  5
0
  8
Slice
 10
-24.2499999999998
 20
113.500000000003
 30
0
 40
0.500000000000529
 50
-134.999999999943
 51
-90
  0
ARC
  5
0
  8
Slice
 10
-24.2499999999998
 20
113.500000000003
 30
0
 40
0.499999999999996
 50
180
 51
225.000000000057
  0
LINE
  5
0
  8
Slice
 10
-24.7499999999998
 20
113.500000000003
 30
0
 11
-24.7499999999998
 21
122.500000000003
 31
0
  0
ARC
  5
0
  8
Slice
 10
-24.2499999999998
 20
122.500000000003
 30
0
 40
0.499999999999826
 50
135.000000000023
 51
180
  0
ARC
  5
0
  8
Slice
 10
-24.2499999999998
 20
122.500000000003
 30
0
 40
0.5
 50
90
 51
135.000000000023
  0
LINE
  5
0
  8
Slice
 10
-24.2499999999998
 20
123.000000000003
 30
0
 11
-21.2499999999998
 21
123.000000000003
 31
0
  0
ARC
  5
0
  8
Slice
 10
-21.2499999999998
 20
123.500000000003
 30
0
 40
0.5
 50
-90
 51
-45.0000000000567
  0
ARC
  5
0
  8
Slice
 10
-21.2499999999998
 20
123.500000000003
 30
0
 40
0.500000000000534
 50
-45.0000000000567
 51
0
  0
LINE
  5
0
  8
Slice
 10
-20.7499999999998
 20
123.500000000003
 30
0
 11
-20.7499999999998
 21
128.500000000003
 31
0
  0
ARC
  5
0
  8
Slice
 10
-21.2499999999998
 20
128.500000000003
 30
0
 40
0.5
 50
0
 51
44.9999999999727
  0
ARC
  5
0
  8
Slice
 10
-21.2499999999998
 20
128.500000000003
 30
0
 40
0.499999999999801
 50
44.9999999999727
 51
90
  0
LINE
  5
0
  8
Slice
 10
-21.2499999999998
 20
129.000000000003
 30
0
 11
-45.4999999999997
 21
129.000000000003
 31
0
  0
ARC
  5
0
  8
Slice
 10
-45.4999999999997
 20
127.000000000003
 30
0
 40
2.00000000000004
 50
90
 51
180
  0
LINE
  5
0
  8
Slice
 10
-47.4999999999997
 20
127.000000000003
 30
0
 11
-47.4999999999999
 21
71.0000000000026
 31
0
  0
ARC
  5
0
  8
Slice
 10
-45.4999999999999
 20
71.0000000000026
 30
0
 40
2
 50
180
 51
270
  0
ARC
  5
0
  8
Slice
 10
33.7500000000031
 20
95.0000000000025
 30
0
 40
2.06699999999999
 50
180
 51
360
  0
ARC
  5
0
  8
Slice
 10
33.7500000000031
 20
95.0000000000025
 30
0
 40
2.067
 50
0
 51
180
  0
ARC
  5
0
  8
Slice
 10
68.7500000000031
 20
95.0000000000024
 30
0
 40
2.06699999999999
 50
180
 51
359.999999999997
  0
ARC
  5
0
  8
Slice
 10
68.7500000000031
 20
95.0000000000024
 30
0
 40
2.06700000000002
 50
-2.75740396186868e-12
 51
180
  0
ARC
  5
0
  8
Slice
 10
33.7500000000025
 20
-94.9999999999975
 30
0
 40
2.067
 50
180
 51
360
  0
ARC
  5
0
  8
Slice
 10
33.7500000000025
 20
-94.9999999999975
 30
0
 40
2.067
 50
0
 51
180
  0
ARC
  5
0
  8
Slice
 10
68.7500000000025
 20
-94.9999999999976
 30
0
 40
2.06700000000001
 50
180
 51
359.999999999997
  0
ARC
  5
0
  8
Slice
 10
68.7500000000025
 20
-94.9999999999976
 30
0
 40
2.06699999999999
 50
-2.75740396186872e-12
 51
180
  0
ARC
  5
0
  8
Slice
 10
-3.56523893365702e-13
 20
-80.2499999999974
 30
0
 40
6
 50
180
 51
360
  0
ARC
  5
0
  8
Slice
 10
-3.56523893365702e-13
 20
-80.2499999999974
 30
0
 40
6
 50
0
 51
180
  0
ARC
  5
0
  8
Slice
 10
100.75
 20
99.0000000000023
 30
0
 40
5.9999999999998
 50
180
 51
359.999999999999
  0
ARC
  5
0
  8
Slice
 10
100.75
 20
99.0000000000023
 30
0
 40
6
 50
-8.1422199845466e-13
 51
180
  0
ARC
  5
0
  8
Slice
 10
100.75
 20
-98.9999999999978
 30
0
 40
6.0000000000004
 50
179.999999999999
 51
360
  0
ARC
  5
0
  8
Slice
 10
100.75
 20
-98.9999999999978
 30
0
 40
6
 50
0
 51
179.999999999999
  0
ARC
  5
0
  8
Slice
 10
100.75
 20
2.26261110365385e-12
 30
0
 40
6.0000000000001
 50
180
 51
360
  0
ARC
  5
0
  8
Slice
 10
100.75
 20
2.26261110365385e-12
 30
0
 40
6
 50
-1.90048858938498e-13
 51
180
  0
ARC
  5
0
  8
Slice
 10
1.46367756610647e-13
 20
80.2500000000026
 30
0
 40
6
 50
180
 51
360
  0
ARC
  5
0
  8
Slice
 10
1.46367756610647e-13
 20
80.2500000000026
 30
0
 40
6
 50
0
 51
180
  0
ARC
  5
0
  8
Slice
 10
41.2500000000002
 20
122.500000000002
 30
0
 40
1.62100000000001
 50
180
 51
360
  0
ARC
  5
0
  8
Slice
 10
41.2500000000002
 20
122.500000000002
 30
0
 40
1.621
 50
0
 51
180
  0
ARC
  5
0
  8
Slice
 10
60.2500000000002
 20
122.500000000002
 30
0
 40
1.621
 50
180
 51
360
  0
ARC
  5
0
  8
Slice
 10
60.2500000000002
 20
122.500000000002
 30
0
 40
1.621
 50
0
 51
180
  0
ARC
  5
0
  8
Slice
 10
22.2500000000002
 20
122.500000000003
 30
0
 40
1.621
 50
180
 51
360
  0
ARC
  5
0
  8
Slice
 10
22.2500000000002
 20
122.500000000003
 30
0
 40
1.621
 50
0
 51
180
  0
ARC
  5
0
  8
Slice
 10
-18
 20
30.0000000000027
 30
0
 40
2.067
 50
180
 51
359.999999999997
  0
ARC
  5
0
  8
Slice
 10
-18
 20
30.0000000000027
 30
0
 40
2.067
 50
-2.7574039618687e-12
 51
180
  0
ARC
  5
0
  8
Slice
 10
18
 20
30.0000000000025
 30
0
 40
2.067
 50
180
 51
360
  0
ARC
  5
0
  8
Slice
 10
18
 20
30.0000000000025
 30
0
 40
2.067
 50
0
 51
180
  0
ARC
  5
0
  8
Slice
 10
114.725884378004
 20
20.0000000000022
 30
0
 40
2.06699999999999
 50
180
 51
360
  0
ARC
  5
0
  8
Slice
 10
114.725884378004
 20
20.0000000000022
 30
0
 40
2.06700000000001
 50
0
 51
180
  0
ARC
  5
0
  8
Slice
 10
114.725884378004
 20
-19.9999999999978
 30
0
 40
2.06699999999999
 50
180
 51
360
  0
ARC
  5
0
  8
Slice
 10
114.725884378004
 20
-19.9999999999978
 30
0
 40
2.06700000000001
 50
0
 51
180
  0
ARC
  5
0
  8
Slice
 10
10.0000000000002
 20
105.000000000003
 30
0
 40
2.06699999999997
 50
180
 51
360
  0
ARC
  5
0
  8
Slice
 10
10.0000000000002
 20
105.000000000003
 30
0
 40
2.0670000000001
 50
0
 51
180
  0
ARC
  5
0
  8
Slice
 10
-9.99999999999974
 20
105.000000000003
 30
0
 40
2.06699999999996
 50
180
 51
360
  0
ARC
  5
0
  8
Slice
 10
-9.99999999999974
 20
105.000000000003
 30
0
 40
2.06699999999997
 50
0
 51
180
  0
ARC
  5
0
  8
Slice
 10
-10.0000000000004
 20
-104.999999999997
 30
0
 40
2.067
 50
180
 51
360
  0
ARC
  5
0
  8
Slice
 10
-10.0000000000004
 20
-104.999999999997
 30
0
 40
2.06699999999993
 50
0
 51
180
  0
ARC
  5
0
  8
Slice
 10
9.99999999999953
 20
-104.999999999997
 30
0
 40
2.067
 50
180
 51
360
  0
ARC
  5
0
  8
Slice
 10
9.99999999999953
 20
-104.999999999997
 30
0
 40
2.06700000000007
 50
0
 51
180
  0
ARC
  5
0
  8
Slice
 10
60.2499999999994
 20
-122.499999999998
 30
0
 40
1.621
 50
180
 51
360
  0
ARC
  5
0
  8
Slice
 10
60.2499999999994
 20
-122.499999999998
 30
0
 40
1.621
 50
0
 51
180
  0
ARC
  5
0
  8
Slice
 10
41.2499999999994
 20
-122.499999999998
 30
0
 40
1.621
 50
180
 51
360
  0
ARC
  5
0
  8
Slice
 10
41.2499999999994
 20
-122.499999999998
 30
0
 40
1.621
 50
0
 51
180
  0
ARC
  5
0
  8
Slice
 10
22.2499999999994
 20
-122.499999999997
 30
0
 40
1.621
 50
180
 51
359.999999999965
  0
ARC
  5
0
  8
Slice
 10
22.2499999999994
 20
-122.499999999997
 30
0
 40
1.621
 50
-3.51607278789798e-11
 51
180
  0
ARC
  5
0
  8
Slice
 10
-18.0000000000002
 20
-29.9999999999974
 30
0
 40
2.067
 50
179.999999999997
 51
360
  0
ARC
  5
0
  8
Slice
 10
-18.0000000000002
 20
-29.9999999999974
 30
0
 40
2.067
 50
0
 51
179.999999999997
  0
ARC
  5
0
  8
Slice
 10
17.9999999999998
 20
-29.9999999999975
 30
0
 40
2.067
 50
180
 51
360
  0
ARC
  5
0
  8
Slice
 10
17.9999999999998
 20
-29.9999999999975
 30
0
 40
2.067
 50
0
 51
180
  0
ENDSEC
  0
EOF
